<?xml version="1.0" encoding="utf-8"?>
<!-- Generator: Adobe Illustrator 15.0.0, SVG Export Plug-In . SVG Version: 6.00 Build 0)  -->
<!DOCTYPE svg PUBLIC "-//W3C//DTD SVG 1.1//EN" "http://www.w3.org/Graphics/SVG/1.1/DTD/svg11.dtd">
<svg version="1.1" id="图层_1" xmlns="http://www.w3.org/2000/svg" xmlns:xlink="http://www.w3.org/1999/xlink" x="0px" y="0px"
	 width="160px" height="36px" viewBox="0 0 160 36" enable-background="new 0 0 160 36" xml:space="preserve">
<g>
	
		<linearGradient id="SVGID_1_" gradientUnits="userSpaceOnUse" x1="1032.4727" y1="493.5928" x2="1202.5498" y2="493.5928" gradientTransform="matrix(0.9394 0 0 0.9357 -969.6929 -443.8549)">
		<stop  offset="0" style="stop-color:#300000"/>
		<stop  offset="1" style="stop-color:#2B0000"/>
	</linearGradient>
	<path fill="url(#SVGID_1_)" d="M159.982,33.594c0,1.327-1.306,2.406-2.916,2.406H3.127c-1.61,0-2.916-1.079-2.916-2.406V2.406
		c0-1.332,1.305-2.405,2.916-2.405L157.066,0c1.61,0,2.916,1.074,2.916,2.406V33.594z"/>
	<linearGradient id="SVGID_2_" gradientUnits="userSpaceOnUse" x1="35.6807" y1="-11.4063" x2="117.9727" y2="42.0349">
		<stop  offset="0" style="stop-color:#C68B52"/>
		<stop  offset="1" style="stop-color:#D8987F"/>
	</linearGradient>
	<path fill="url(#SVGID_2_)" d="M160,32.933c0,1.314-1.301,2.38-2.906,2.38H3.77c-1.604,0-2.903-1.065-2.903-2.38V2.38
		C0.867,1.066,2.167,0,3.77,0h153.324C158.699,0,160,1.066,160,2.38V32.933z"/>
	<g>
		<linearGradient id="SVGID_3_" gradientUnits="userSpaceOnUse" x1="14.4077" y1="-65.7222" x2="14.4077" y2="146.6626">
			<stop  offset="0" style="stop-color:#CB8D5E"/>
			<stop  offset="0.3568" style="stop-color:#C28453"/>
			<stop  offset="0.9811" style="stop-color:#AC6C36"/>
			<stop  offset="1" style="stop-color:#AB6B35"/>
		</linearGradient>
		<path fill="url(#SVGID_3_)" d="M14.551,26.05c-0.389-0.001-0.658,0.003-0.859,0.129c0.586,0.039,1.037,0.228,1.43,0
			C14.79,26.154,14.719,26.155,14.551,26.05z"/>
		<linearGradient id="SVGID_4_" gradientUnits="userSpaceOnUse" x1="19.1279" y1="-66.1558" x2="19.1279" y2="147.2293">
			<stop  offset="0" style="stop-color:#CB8D5E"/>
			<stop  offset="0.3568" style="stop-color:#C28453"/>
			<stop  offset="0.9811" style="stop-color:#AC6C36"/>
			<stop  offset="1" style="stop-color:#AB6B35"/>
		</linearGradient>
		<path fill="url(#SVGID_4_)" d="M19.7,26.572c-0.381,0-0.763,0-1.145,0c0,0.044,0,0.087,0,0.131
			C19.025,26.703,19.392,27.054,19.7,26.572z"/>
		<linearGradient id="SVGID_5_" gradientUnits="userSpaceOnUse" x1="8.9722" y1="-66.0425" x2="8.9722" y2="147.0792">
			<stop  offset="0" style="stop-color:#CB8D5E"/>
			<stop  offset="0.3568" style="stop-color:#C28453"/>
			<stop  offset="0.9811" style="stop-color:#AC6C36"/>
			<stop  offset="1" style="stop-color:#AB6B35"/>
		</linearGradient>
		<path fill="url(#SVGID_5_)" d="M9.259,25.395c-0.333,0.027-0.405,0.027-0.573,0.131C9.019,25.501,9.091,25.501,9.259,25.395z"/>
		<linearGradient id="SVGID_6_" gradientUnits="userSpaceOnUse" x1="38.3667" y1="-66.0522" x2="38.3667" y2="147.097">
			<stop  offset="0" style="stop-color:#CB8D5E"/>
			<stop  offset="0.3568" style="stop-color:#C28453"/>
			<stop  offset="0.9811" style="stop-color:#AC6C36"/>
			<stop  offset="1" style="stop-color:#AB6B35"/>
		</linearGradient>
		<path fill="url(#SVGID_6_)" d="M26.423,29.057c1.669,1.2,21.409,0.035,23.888-0.132c0-0.085,0-0.174,0-0.262
			c-0.296-0.047-0.276-0.031-0.43-0.13c-6.04,0.228-12.718,1.254-18.881,0.653C29.841,28.957,27.383,28.931,26.423,29.057z"/>
		<linearGradient id="SVGID_7_" gradientUnits="userSpaceOnUse" x1="30.7856" y1="-65.9546" x2="30.7856" y2="146.97">
			<stop  offset="0" style="stop-color:#CB8D5E"/>
			<stop  offset="0.3568" style="stop-color:#C28453"/>
			<stop  offset="0.9811" style="stop-color:#AC6C36"/>
			<stop  offset="1" style="stop-color:#AB6B35"/>
		</linearGradient>
		<path fill="url(#SVGID_7_)" d="M29.427,27.356c0.761,0.021,2.223,0.167,2.717-0.131C31.384,27.206,29.92,27.059,29.427,27.356z"/>
		<linearGradient id="SVGID_8_" gradientUnits="userSpaceOnUse" x1="21.8457" y1="-66.0405" x2="21.8457" y2="147.0811">
			<stop  offset="0" style="stop-color:#CB8D5E"/>
			<stop  offset="0.3568" style="stop-color:#C28453"/>
			<stop  offset="0.9811" style="stop-color:#AC6C36"/>
			<stop  offset="1" style="stop-color:#AB6B35"/>
		</linearGradient>
		<path fill="url(#SVGID_8_)" d="M22.132,26.834c-0.333,0.026-0.404,0.024-0.572,0.131C21.893,26.938,21.964,26.939,22.132,26.834z"
			/>
		<linearGradient id="SVGID_9_" gradientUnits="userSpaceOnUse" x1="14.2646" y1="-66.0981" x2="14.2646" y2="147.154">
			<stop  offset="0" style="stop-color:#CB8D5E"/>
			<stop  offset="0.3568" style="stop-color:#C28453"/>
			<stop  offset="0.9811" style="stop-color:#AC6C36"/>
			<stop  offset="1" style="stop-color:#AB6B35"/>
		</linearGradient>
		<path fill="url(#SVGID_9_)" d="M2.821,26.703c0.048,0,0.096,0,0.143,0c3.191,0.953,18.513,2.795,22.744,2.483
			c0-0.087,0-0.175,0-0.262c-1.834,0.031-20.392-1.508-21.742-2.353c-0.382,0-0.763,0-1.145,0
			C2.821,26.616,2.821,26.659,2.821,26.703z"/>
		<linearGradient id="SVGID_10_" gradientUnits="userSpaceOnUse" x1="5.7534" y1="-66.3384" x2="5.7534" y2="147.4764">
			<stop  offset="0" style="stop-color:#CB8D5E"/>
			<stop  offset="0.3568" style="stop-color:#C28453"/>
			<stop  offset="0.9811" style="stop-color:#AC6C36"/>
			<stop  offset="1" style="stop-color:#AB6B35"/>
		</linearGradient>
		<path fill="url(#SVGID_10_)" d="M5.11,24.741c-0.389,0-0.658,0.007-0.859,0.132c0.812,0.097,2.413,0.582,3.004,0.262
			C6.774,25.135,5.518,24.988,5.11,24.741z"/>
		<linearGradient id="SVGID_11_" gradientUnits="userSpaceOnUse" x1="127.4707" y1="-66.126" x2="127.4707" y2="147.1876">
			<stop  offset="0" style="stop-color:#CB8D5E"/>
			<stop  offset="0.3568" style="stop-color:#C28453"/>
			<stop  offset="0.9811" style="stop-color:#AC6C36"/>
			<stop  offset="1" style="stop-color:#AB6B35"/>
		</linearGradient>
		<path fill="url(#SVGID_11_)" d="M126.98,33.239c-9.194,0-19.97,0.913-30.076,2.073h14.262c11.766-1.158,23.328-0.863,34.915,0
			h11.013c0.33,0,0.646-0.046,0.942-0.129C147.727,34.07,137.695,33.24,126.98,33.239z"/>
		<linearGradient id="SVGID_12_" gradientUnits="userSpaceOnUse" x1="1.0576" y1="-65.1919" x2="1.0576" y2="145.9188">
			<stop  offset="0" style="stop-color:#CB8D5E"/>
			<stop  offset="0.3568" style="stop-color:#C28453"/>
			<stop  offset="0.9811" style="stop-color:#AC6C36"/>
			<stop  offset="1" style="stop-color:#AB6B35"/>
		</linearGradient>
		<path fill="url(#SVGID_12_)" d="M0.867,24.108v0.095c0.156-0.013,0.266-0.043,0.382-0.114C1.09,24.092,0.969,24.097,0.867,24.108z
			"/>
		<linearGradient id="SVGID_13_" gradientUnits="userSpaceOnUse" x1="1.7007" y1="-66.2456" x2="1.7007" y2="147.3469">
			<stop  offset="0" style="stop-color:#CB8D5E"/>
			<stop  offset="0.3568" style="stop-color:#C28453"/>
			<stop  offset="0.9811" style="stop-color:#AC6C36"/>
			<stop  offset="1" style="stop-color:#AB6B35"/>
		</linearGradient>
		<path fill="url(#SVGID_13_)" d="M2.393,26.703c0.047-0.087,0.095-0.175,0.143-0.261c-0.407-0.001-0.986-0.056-1.668-0.149v0.217
			C1.38,26.594,1.888,26.661,2.393,26.703z"/>
		<linearGradient id="SVGID_14_" gradientUnits="userSpaceOnUse" x1="3.1069" y1="-65.3662" x2="3.1069" y2="146.165">
			<stop  offset="0" style="stop-color:#CB8D5E"/>
			<stop  offset="0.3568" style="stop-color:#C28453"/>
			<stop  offset="0.9811" style="stop-color:#AC6C36"/>
			<stop  offset="1" style="stop-color:#AB6B35"/>
		</linearGradient>
		<path fill="url(#SVGID_14_)" d="M2.964,24.611c0.251-0.082,0.14-0.025,0.286-0.13c-0.095,0-0.19,0-0.286,0
			C2.964,24.523,2.964,24.568,2.964,24.611z"/>
		<linearGradient id="SVGID_15_" gradientUnits="userSpaceOnUse" x1="117.5264" y1="-66.1006" x2="117.5264" y2="147.1588">
			<stop  offset="0" style="stop-color:#CB8D5E"/>
			<stop  offset="0.3568" style="stop-color:#C28453"/>
			<stop  offset="0.9811" style="stop-color:#AC6C36"/>
			<stop  offset="1" style="stop-color:#AB6B35"/>
		</linearGradient>
		<path fill="url(#SVGID_15_)" d="M148.437,31.28c-11.478-1.59-31.085-1.302-42.34,0.26c-10.361,1.438-20.677,2.663-31.045,3.772
			h5.782c0.983-0.125,1.792-0.249,2.376-0.373c6.199-1.308,13.142-1.133,19.31-2.484c5.491-1.202,27.358-2.041,32.758-1.438
			c1.763,0.045,3.527,0.086,5.292,0.13c6.496,0.381,12.963,1.171,19.413,2.046c0.011-0.086,0.018-0.171,0.018-0.261v-0.037
			C154.788,32.176,149.442,31.417,148.437,31.28z"/>
		<linearGradient id="SVGID_16_" gradientUnits="userSpaceOnUse" x1="25.9224" y1="-66.1997" x2="25.9224" y2="147.2858">
			<stop  offset="0" style="stop-color:#CB8D5E"/>
			<stop  offset="0.3568" style="stop-color:#C28453"/>
			<stop  offset="0.9811" style="stop-color:#AC6C36"/>
			<stop  offset="1" style="stop-color:#AB6B35"/>
		</linearGradient>
		<path fill="url(#SVGID_16_)" d="M25.136,26.965c-0.416-0.008-0.782-0.006-1.001,0.131c0.82,0.067,2.835,0.439,3.577,0
			C26.979,27.116,25.605,27.248,25.136,26.965z"/>
		<linearGradient id="SVGID_17_" gradientUnits="userSpaceOnUse" x1="80.4331" y1="-66.1064" x2="80.4331" y2="147.1655">
			<stop  offset="0" style="stop-color:#CB8D5E"/>
			<stop  offset="0.3568" style="stop-color:#C28453"/>
			<stop  offset="0.9811" style="stop-color:#AC6C36"/>
			<stop  offset="1" style="stop-color:#AB6B35"/>
		</linearGradient>
		<path fill="url(#SVGID_17_)" d="M140.569,26.442c-19.51-1.384-40.094,1.019-59.219,4.575c-16.863,3.136-53.988,4.57-70.09,2.353
			L0.867,31.963v0.856c4.301,0.609,8.912,1.273,10.824,1.468c5.044,0.506,13.066,0.89,20.798,1.025H43.32
			c2.864-0.063,5.378-0.184,7.277-0.373c4.744-0.475,13.031-0.384,17.451-1.307c7.276-1.522,14.713-1.61,21.885-2.747
			c6.317-1.39,13.396-1.407,19.883-2.745c4.777-0.985,26.706-1.379,30.896-0.521c3.21,0.655,6.739,0.346,10.013,1.044L160,30.057
			v-1.024C152.867,27.963,144.186,26.697,140.569,26.442z"/>
		<linearGradient id="SVGID_18_" gradientUnits="userSpaceOnUse" x1="80.4331" y1="-66.1084" x2="80.4331" y2="147.1687">
			<stop  offset="0" style="stop-color:#CB8D5E"/>
			<stop  offset="0.3568" style="stop-color:#C28453"/>
			<stop  offset="0.9811" style="stop-color:#AC6C36"/>
			<stop  offset="1" style="stop-color:#AB6B35"/>
		</linearGradient>
		<path fill="url(#SVGID_18_)" d="M102.949,7.747c-4.556,0.446-16.37-0.201-20.025,0.523c-1.996,0.394-49.004,2.389-52.496,1.699
			C29.121,9.711,15.63,9.793,12.977,9.707L0.867,9.105v1.399c4.707,0.351,9.646,0.817,13.685,0.903
			c5.732,0.121,34.528,0.739,38.191,0c3.269-0.659,31.404-1.428,37.477-2.092c4.326-0.472,37.993-1.021,41.481-0.653
			c6.194,0.652,16.419-0.133,23.03,0.522c0.643,0.065,2.763,0.203,5.27,0.354V8.231C141.885,7.555,113.311,6.735,102.949,7.747z"/>
		<linearGradient id="SVGID_19_" gradientUnits="userSpaceOnUse" x1="80.4331" y1="-66.1055" x2="80.4331" y2="147.1632">
			<stop  offset="0" style="stop-color:#CB8D5E"/>
			<stop  offset="0.3568" style="stop-color:#C28453"/>
			<stop  offset="0.9811" style="stop-color:#AC6C36"/>
			<stop  offset="1" style="stop-color:#AB6B35"/>
		</linearGradient>
		<path fill="url(#SVGID_19_)" d="M100.089,4.609C94.277,5.175,68.223,4.563,65.33,5.131C61.022,5.979,19.456,5.592,0.867,5.374
			v1.644c15.602,0.381,45.817,1.154,49.3,0.467c2.229-0.438,29.109-0.656,35.331-1.177C89.195,6,114.987,5.916,120.114,5.916
			C133.688,5.915,146.943,6.219,160,6.554V5.13C140.889,4.805,106.054,4.028,100.089,4.609z"/>
		<linearGradient id="SVGID_20_" gradientUnits="userSpaceOnUse" x1="80.4331" y1="-66.1025" x2="80.4331" y2="147.1592">
			<stop  offset="0" style="stop-color:#CB8D5E"/>
			<stop  offset="0.3568" style="stop-color:#C28453"/>
			<stop  offset="0.9811" style="stop-color:#AC6C36"/>
			<stop  offset="1" style="stop-color:#AB6B35"/>
		</linearGradient>
		<path fill="url(#SVGID_20_)" d="M148.293,12.454c-5.602-0.684-35.49-0.9-40.338-0.262c-5.436,0.349-10.87,0.698-16.306,1.046
			c-11.204,1.089-22.411,2.179-33.614,3.268c-7.398,1.103-31.21,1.382-37.62,0.654C19.11,17.011,8.72,16.006,0.867,15.254v2.952
			c12.484,1.627,30.702,3.776,39.718,2.875c3.067-0.306,6.267-0.042,9.44-0.523c8.309-1.26,23.371-2.357,32.613-3.66
			c3.377-0.476,26-2.419,26.319-2.484c3.843-0.779,31.794-0.463,36.618,0.131c3.436,0.422,7.029,0.588,10.441,0.784L160,15.789
			v-2.327C154.547,13.013,148.943,12.532,148.293,12.454z"/>
		<linearGradient id="SVGID_21_" gradientUnits="userSpaceOnUse" x1="80.4331" y1="-66.1099" x2="80.4331" y2="147.1704">
			<stop  offset="0" style="stop-color:#CB8D5E"/>
			<stop  offset="0.3568" style="stop-color:#C28453"/>
			<stop  offset="0.9811" style="stop-color:#AC6C36"/>
			<stop  offset="1" style="stop-color:#AB6B35"/>
		</linearGradient>
		<path fill="url(#SVGID_21_)" d="M119.686,9.314c-2.301,0.457-5.389-0.36-7.867,0.132c-6.606,0.787-32.167,1.106-41.768,2.222
			c-8.209,0.955-37.063,2.376-45.201,1.438c-3.766-0.13-7.534-0.262-11.3-0.393l-12.683-0.92v2.386c2.86,0.34,5.664,0.7,7.391,0.888
			c22.379,2.439,25.938,1.345,64.992-1.382c4.916-0.342,10.392-0.711,16.54-1.102c7.589-1.531,45.799-1.993,52.21-1.307
			c0.611,0.064,10.091,0.712,18.001,1.246v-2.025C146.129,9.73,125.332,8.79,119.686,9.314z M7.256,14.545c0.143,0,0.286,0,0.429,0
			C7.439,14.66,7.502,14.661,7.256,14.545z M10.545,14.806c0.143,0,0.287,0,0.429,0C10.728,14.921,10.792,14.922,10.545,14.806z
			 M19.271,15.329c0.143,0,0.286,0,0.429,0C19.454,15.444,19.517,15.446,19.271,15.329z M22.847,15.721
			c-0.334,0.045-0.668,0.087-1.001,0.131c-0.162-0.203-0.155-0.11-0.286-0.392c0.334,0,0.667,0,1.001,0
			c0.146,0.104,0.039,0.046,0.286,0.13C22.847,15.634,22.847,15.677,22.847,15.721z M25.279,15.852
			c-0.476-0.01-0.647-0.063-1.001-0.131c0-0.044,0-0.086,0-0.13c0.333,0,0.667,0,1.001,0C25.279,15.677,25.279,15.766,25.279,15.852
			z M33.002,15.983c-0.142,0-0.286,0-0.429,0c0.001-0.044,0.001-0.088,0.001-0.131c0.143-0.044,0.285-0.086,0.428-0.131
			C33.002,15.808,33.002,15.895,33.002,15.983z"/>
		<linearGradient id="SVGID_22_" gradientUnits="userSpaceOnUse" x1="80.4331" y1="-66.0869" x2="80.4331" y2="147.1254">
			<stop  offset="0" style="stop-color:#CB8D5E"/>
			<stop  offset="0.3568" style="stop-color:#C28453"/>
			<stop  offset="0.9811" style="stop-color:#AC6C36"/>
			<stop  offset="1" style="stop-color:#AB6B35"/>
		</linearGradient>
		<path fill="url(#SVGID_22_)" d="M82.333,2.793C68.404,2.748,57.783,2.8,55.459,3.04c-1.901,0.196-19.704,0.334-22.886,0.393
			C21.629,3.631,11.281,3.6,0.867,3.577v0.655c9.581,0.203,23.058,0.516,25.699,0.246c4.097-0.417,33.286-0.789,55.263-0.911
			C98.531,3.475,115.01,3.563,131.7,3.563c9.59-0.001,19.064,0.269,28.3,0.421V3.456C142.392,3.265,107.123,2.875,82.333,2.793z"/>
		<linearGradient id="SVGID_23_" gradientUnits="userSpaceOnUse" x1="121.334" y1="-66.1816" x2="121.334" y2="147.3325">
			<stop  offset="0" style="stop-color:#CB8D5E"/>
			<stop  offset="0.3568" style="stop-color:#C28453"/>
			<stop  offset="0.9811" style="stop-color:#AC6C36"/>
			<stop  offset="1" style="stop-color:#AB6B35"/>
		</linearGradient>
		<path fill="url(#SVGID_23_)" d="M83.588,0c17.724,0.363,56.133,0.562,75.491,0.644C158.561,0.245,157.862,0,157.094,0H83.588z"/>
		<linearGradient id="SVGID_24_" gradientUnits="userSpaceOnUse" x1="21.501" y1="-66.104" x2="21.501" y2="147.1591">
			<stop  offset="0" style="stop-color:#CB8D5E"/>
			<stop  offset="0.3568" style="stop-color:#C28453"/>
			<stop  offset="0.9811" style="stop-color:#AC6C36"/>
			<stop  offset="1" style="stop-color:#AB6B35"/>
		</linearGradient>
		<path fill="url(#SVGID_24_)" d="M8.114,0.556C8.406,0.517,32.912,0.205,41.46,0H3.77C2.875,0,2.074,0.333,1.542,0.854
			C3.948,0.867,6.237,0.806,8.114,0.556z"/>
		<linearGradient id="SVGID_25_" gradientUnits="userSpaceOnUse" x1="108.5996" y1="-66.0288" x2="108.5996" y2="147.0569">
			<stop  offset="0" style="stop-color:#CB8D5E"/>
			<stop  offset="0.3568" style="stop-color:#C28453"/>
			<stop  offset="0.9811" style="stop-color:#AC6C36"/>
			<stop  offset="1" style="stop-color:#AB6B35"/>
		</linearGradient>
		<path fill="url(#SVGID_25_)" d="M105.237,21.342c0,0.045,0,0.089,0,0.133c1.384,0,6.202-0.059,6.724-0.784
			C109.769,20.884,107.135,20.746,105.237,21.342z"/>
		<linearGradient id="SVGID_26_" gradientUnits="userSpaceOnUse" x1="117.0391" y1="-66.1851" x2="117.0391" y2="147.2809">
			<stop  offset="0" style="stop-color:#CB8D5E"/>
			<stop  offset="0.3568" style="stop-color:#C28453"/>
			<stop  offset="0.9811" style="stop-color:#AC6C36"/>
			<stop  offset="1" style="stop-color:#AB6B35"/>
		</linearGradient>
		<path fill="url(#SVGID_26_)" d="M113.249,20.69c0,0.041,0,0.086,0,0.13c1.454,0,6.843-0.069,7.581-0.523
			c-0.251-0.083-0.139-0.024-0.287-0.131C118.617,20.166,114.878,20.175,113.249,20.69z"/>
		<linearGradient id="SVGID_27_" gradientUnits="userSpaceOnUse" x1="77.7031" y1="-66.105" x2="77.7031" y2="147.1605">
			<stop  offset="0" style="stop-color:#CB8D5E"/>
			<stop  offset="0.3568" style="stop-color:#C28453"/>
			<stop  offset="0.9811" style="stop-color:#AC6C36"/>
			<stop  offset="1" style="stop-color:#AB6B35"/>
		</linearGradient>
		<path fill="url(#SVGID_27_)" d="M92.364,23.173c1.587-0.385,12.077-0.979,12.588-1.831c-1.087-0.008-14.149,1.657-16.021,1.962
			c-4.43,0.722-9.242,1.579-13.732,2.222c-1.295,0.185-17.924,2.506-18.452,2.615c-2.116,0.438-4.302,0.162-6.293,0.522
			C51.637,29.953,89.3,23.918,92.364,23.173z"/>
		<linearGradient id="SVGID_28_" gradientUnits="userSpaceOnUse" x1="122.0449" y1="-65.7139" x2="122.0449" y2="146.5878">
			<stop  offset="0" style="stop-color:#CB8D5E"/>
			<stop  offset="0.3568" style="stop-color:#C28453"/>
			<stop  offset="0.9811" style="stop-color:#AC6C36"/>
			<stop  offset="1" style="stop-color:#AB6B35"/>
		</linearGradient>
		<path fill="url(#SVGID_28_)" d="M121.401,20.297c0.47,0.016,1.027,0.031,1.287-0.131C122.221,20.15,121.661,20.135,121.401,20.297
			z"/>
		<linearGradient id="SVGID_29_" gradientUnits="userSpaceOnUse" x1="80.4331" y1="-66.1045" x2="80.4331" y2="147.1619">
			<stop  offset="0" style="stop-color:#CB8D5E"/>
			<stop  offset="0.3568" style="stop-color:#C28453"/>
			<stop  offset="0.9811" style="stop-color:#AC6C36"/>
			<stop  offset="1" style="stop-color:#AB6B35"/>
		</linearGradient>
		<path fill="url(#SVGID_29_)" d="M139.139,14.545c-15.974-0.642-36.65,0.111-52.353,2.223c-8.154,1.095-16.667,2.321-24.89,3.267
			c-9.981,1.149-22.471,2.573-32.613,1.569c-3.327-0.331-11.075-0.285-15.448-1.047L0.867,18.775v0.624
			c7.191,1.04,16.722,2.426,20.979,2.728c10.815,0.766,28.728,0.648,39.049-1.177c15.446-2.729,40.089-5.595,56.359-6.013
			c6.368-0.164,23.19-0.189,29.18,0.523c2.536,0.302,8.258,0.776,13.566,1.299v-0.537C153.066,15.437,146.134,14.826,139.139,14.545
			z"/>
		<linearGradient id="SVGID_30_" gradientUnits="userSpaceOnUse" x1="80.4331" y1="-66.1152" x2="80.4331" y2="147.1785">
			<stop  offset="0" style="stop-color:#CB8D5E"/>
			<stop  offset="0.3568" style="stop-color:#C28453"/>
			<stop  offset="0.9811" style="stop-color:#AC6C36"/>
			<stop  offset="1" style="stop-color:#AB6B35"/>
		</linearGradient>
		<path fill="url(#SVGID_30_)" d="M152.871,16.637c-12.694-1.728-40.4-1.528-54.5,0.261c-9.232,1.172-27.823,3.013-35.616,4.707
			c-4.332,0.939-24.706,2.758-29.323,1.83c-2.69-0.542-8.222-0.158-11.443-0.393c-4.181-0.303-13.854-1.733-21.122-2.811v0.997
			c6.913,1.139,13.855,2.228,20.836,2.729c10.664,0.766,28.75,0.713,39.193-1.176c14.926-2.699,29.954-4.314,45.057-5.883
			c6.15-0.639,26.872-1.365,32.185-0.654c6.634,0.888,14.632,0.825,21.862,1.672v-0.378
			C156.41,17.087,153.222,16.684,152.871,16.637z"/>
		<linearGradient id="SVGID_31_" gradientUnits="userSpaceOnUse" x1="146.9229" y1="-66.1328" x2="146.9228" y2="147.2046">
			<stop  offset="0" style="stop-color:#CB8D5E"/>
			<stop  offset="0.3568" style="stop-color:#C28453"/>
			<stop  offset="0.9811" style="stop-color:#AC6C36"/>
			<stop  offset="1" style="stop-color:#AB6B35"/>
		</linearGradient>
		<path fill="url(#SVGID_31_)" d="M137.422,20.166c-1.191,0-2.384,0-3.575,0c0,0.044,0,0.088-0.001,0.131c0.048,0,0.096,0,0.144,0
			c1.046,0.263,16.696,0.712,26.011,2.515v-0.354c-4.626-0.707-9.509-1.294-12.565-1.638
			C145.907,20.647,138.023,20.523,137.422,20.166z"/>
		<linearGradient id="SVGID_32_" gradientUnits="userSpaceOnUse" x1="128.8398" y1="-65.9922" x2="128.8398" y2="146.9992">
			<stop  offset="0" style="stop-color:#CB8D5E"/>
			<stop  offset="0.3568" style="stop-color:#C28453"/>
			<stop  offset="0.9811" style="stop-color:#AC6C36"/>
			<stop  offset="1" style="stop-color:#AB6B35"/>
		</linearGradient>
		<path fill="url(#SVGID_32_)" d="M133.56,20.166c-1.15-0.103-5.81,0.185-6.579-0.261c-0.765,0.023-2.35,0.047-2.86,0.392
			C125.485,20.297,132.663,20.719,133.56,20.166z"/>
	</g>
	
		<linearGradient id="SVGID_33_" gradientUnits="userSpaceOnUse" x1="424.4082" y1="264.5537" x2="423.8415" y2="265.1005" gradientTransform="matrix(5.9584 9.5258 -9.5258 5.9584 146.3559 -5600.4712)">
		<stop  offset="0" style="stop-color:#924525"/>
		<stop  offset="1" style="stop-color:#300000"/>
	</linearGradient>
	<path fill="url(#SVGID_33_)" d="M153.141,20.698c-2.091,1.071-4.848,0.552-6.156-1.162c-1.309-1.713-0.672-3.971,1.419-5.042
		c2.092-1.071,4.848-0.55,6.157,1.163C155.867,17.368,155.233,19.626,153.141,20.698z"/>
	<g>
		
			<radialGradient id="SVGID_34_" cx="424.0371" cy="264.6699" r="0.4719" gradientTransform="matrix(6.0079 7.8666 -9.6049 4.9206 147.5708 -4620.959)" gradientUnits="userSpaceOnUse">
			<stop  offset="0" style="stop-color:#F4F4F4"/>
			<stop  offset="1" style="stop-color:#48565E"/>
		</radialGradient>
		<path fill="url(#SVGID_34_)" d="M153.478,20.525c-2.092,1.073-4.847,0.552-6.155-1.162c-1.309-1.712-0.673-3.972,1.419-5.042
			c2.092-1.071,4.848-0.552,6.157,1.162C156.205,17.196,155.57,19.452,153.478,20.525z"/>
		
			<linearGradient id="SVGID_35_" gradientUnits="userSpaceOnUse" x1="1188.6914" y1="488.3496" x2="1194.835" y2="488.3496" gradientTransform="matrix(0.9412 0 0 0.9412 -970.5765 -442.2109)">
			<stop  offset="0" style="stop-color:#888888"/>
			<stop  offset="1" style="stop-color:#241916"/>
		</linearGradient>
		<polygon fill="url(#SVGID_35_)" points="152.218,19.79 153.225,19.276 152.019,17.694 152.072,17.503 154.002,16.517 
			153.371,15.691 151.441,16.678 151.209,16.636 150.002,15.055 148.995,15.571 150.201,17.151 150.147,17.342 148.22,18.331 
			148.848,19.157 150.777,18.166 151.011,18.211 		"/>
		<linearGradient id="SVGID_36_" gradientUnits="userSpaceOnUse" x1="151.4414" y1="16.1846" x2="154.002" y2="16.1846">
			<stop  offset="0" style="stop-color:#888888"/>
			<stop  offset="1" style="stop-color:#241916"/>
		</linearGradient>
		<path fill="url(#SVGID_36_)" d="M154.002,16.517c0,0-0.637-0.208-1.273-0.123c-0.637,0.085-1.287,0.285-1.287,0.285l1.93-0.987
			L154.002,16.517z"/>
		<linearGradient id="SVGID_37_" gradientUnits="userSpaceOnUse" x1="148.9951" y1="16.1035" x2="150.2012" y2="16.1035">
			<stop  offset="0" style="stop-color:#888888"/>
			<stop  offset="1" style="stop-color:#241916"/>
		</linearGradient>
		<path fill="url(#SVGID_37_)" d="M150.002,15.055c0,0-0.252,0.522-0.149,1.042c0.102,0.52,0.349,1.055,0.349,1.055l-1.206-1.581
			L150.002,15.055z"/>
		<linearGradient id="SVGID_38_" gradientUnits="userSpaceOnUse" x1="151.0107" y1="19" x2="153.2246" y2="19">
			<stop  offset="0" style="stop-color:#888888"/>
			<stop  offset="1" style="stop-color:#241916"/>
		</linearGradient>
		<path fill="url(#SVGID_38_)" d="M153.225,19.276c0,0-0.737-0.086-1.244-0.384c-0.505-0.301-0.97-0.682-0.97-0.682l1.207,1.579
			L153.225,19.276z"/>
		<linearGradient id="SVGID_39_" gradientUnits="userSpaceOnUse" x1="148.2197" y1="18.25" x2="150.1475" y2="18.25">
			<stop  offset="0" style="stop-color:#888888"/>
			<stop  offset="1" style="stop-color:#241916"/>
		</linearGradient>
		<path fill="url(#SVGID_39_)" d="M148.848,19.157c0,0,0.104-0.605,0.469-1.021c0.367-0.413,0.831-0.793,0.831-0.793l-1.928,0.989
			L148.848,19.157z"/>
	</g>
	<g>
		
			<linearGradient id="SVGID_40_" gradientUnits="userSpaceOnUse" x1="288.8096" y1="-84.4189" x2="288.2149" y2="-84.9346" gradientTransform="matrix(10.0179 -5.0887 5.0887 10.0179 -2449.6313 2334.0359)">
			<stop  offset="0" style="stop-color:#924525"/>
			<stop  offset="1" style="stop-color:#300000"/>
		</linearGradient>
		<path fill="url(#SVGID_40_)" d="M13.74,15.939c1.118,1.801,0.24,4.004-1.959,4.918c-2.2,0.917-4.888,0.198-6.005-1.604
			c-1.117-1.801-0.24-4.005,1.958-4.919C9.934,13.419,12.623,14.138,13.74,15.939z"/>
		<g>
			
				<radialGradient id="SVGID_41_" cx="288.6514" cy="-84.9321" r="0.4718" gradientTransform="matrix(10.1011 -4.2024 5.1309 8.273 -2469.9624 1931.5525)" gradientUnits="userSpaceOnUse">
				<stop  offset="0" style="stop-color:#F4F4F4"/>
				<stop  offset="1" style="stop-color:#48565E"/>
			</radialGradient>
			<path fill="url(#SVGID_41_)" d="M14.078,15.768c1.118,1.8,0.24,4.004-1.96,4.917c-2.199,0.917-4.888,0.198-6.006-1.604
				c-1.117-1.801-0.24-4.004,1.959-4.919C10.272,13.246,12.96,13.965,14.078,15.768z"/>
			
				<linearGradient id="SVGID_42_" gradientUnits="userSpaceOnUse" x1="1038.7725" y1="488.3496" x2="1045.1035" y2="488.3496" gradientTransform="matrix(0.9412 0 0 0.9412 -970.5765 -442.2109)">
				<stop  offset="0" style="stop-color:#888888"/>
				<stop  offset="1" style="stop-color:#241916"/>
			</linearGradient>
			<polygon fill="url(#SVGID_42_)" points="13.074,16.73 12.536,15.862 10.507,16.708 10.279,16.646 9.248,14.984 8.19,15.424 
				9.221,17.087 9.147,17.272 7.116,18.119 7.654,18.983 9.684,18.14 9.912,18.201 10.942,19.863 12.001,19.423 10.97,17.761 
				11.045,17.575 			"/>
			<linearGradient id="SVGID_43_" gradientUnits="userSpaceOnUse" x1="8.1904" y1="16.0352" x2="9.248" y2="16.0352">
				<stop  offset="0" style="stop-color:#888888"/>
				<stop  offset="1" style="stop-color:#241916"/>
			</linearGradient>
			<path fill="url(#SVGID_43_)" d="M9.248,14.984c0,0-0.308,0.501-0.262,1.026c0.046,0.528,0.234,1.077,0.234,1.077l-1.03-1.663
				L9.248,14.984z"/>
			<linearGradient id="SVGID_44_" gradientUnits="userSpaceOnUse" x1="7.1157" y1="18.5513" x2="9.6841" y2="18.5513">
				<stop  offset="0" style="stop-color:#888888"/>
				<stop  offset="1" style="stop-color:#241916"/>
			</linearGradient>
			<path fill="url(#SVGID_44_)" d="M7.116,18.119c0,0,0.612,0.25,1.256,0.213c0.642-0.038,1.313-0.192,1.313-0.192l-2.03,0.844
				L7.116,18.119z"/>
			<linearGradient id="SVGID_45_" gradientUnits="userSpaceOnUse" x1="11.0449" y1="16.7188" x2="13.0742" y2="16.7188">
				<stop  offset="0" style="stop-color:#888888"/>
				<stop  offset="1" style="stop-color:#241916"/>
			</linearGradient>
			<path fill="url(#SVGID_45_)" d="M12.536,15.862c0,0-0.167,0.596-0.578,0.98c-0.409,0.387-0.913,0.732-0.913,0.732l2.029-0.845
				L12.536,15.862z"/>
			<linearGradient id="SVGID_46_" gradientUnits="userSpaceOnUse" x1="9.9121" y1="19.0322" x2="12.001" y2="19.0322">
				<stop  offset="0" style="stop-color:#888888"/>
				<stop  offset="1" style="stop-color:#241916"/>
			</linearGradient>
			<path fill="url(#SVGID_46_)" d="M12.001,19.423c0,0-0.726-0.139-1.197-0.475c-0.47-0.334-0.892-0.747-0.892-0.747l1.03,1.662
				L12.001,19.423z"/>
		</g>
	</g>
</g>
</svg>
